<svg width="138" height="56" viewBox="0 0 138 56" fill="none" xmlns="http://www.w3.org/2000/svg">
<path d="M89.3134 12.8V12.4571H97.7922V12.8L93.7185 16.6285L82.0661 56H76.0504V55.6571L84.6239 45.5428L85.7608 41.7143H82.2082L73.682 13.4285L70.8873 12.8V12.4571H84.2924V12.8L79.7451 13.4285L86.9923 37.6L93.2449 16.6285L89.3134 12.8Z" fill="#222222"/>
<path d="M70.7907 27.0857C70.7907 36.5714 65.1539 42.2857 58.854 42.2857C52.4594 42.2857 46.87 36.5714 46.87 27.0857C46.87 17.7143 52.4594 11.8857 58.854 11.8857C65.1539 11.8857 70.7907 17.7143 70.7907 27.0857ZM64.3961 27.0857C64.3961 14.9714 62.975 12.4 58.854 12.4C54.6857 12.4 53.2646 14.9714 53.2646 27.0857C53.2646 39.2 54.6857 41.7714 58.854 41.7714C62.975 41.7714 64.3961 39.2 64.3961 27.0857Z" fill="#222222"/>
<path d="M44.2544 41.7143H30.802V41.3714L34.6388 41.0857V0.8L30.802 0.571428V0.228572L40.4176 0V41.0857L44.2544 41.3714V41.7143Z" fill="#222222"/>
<path d="M26.9996 28V41.7143H0V41.3714L4.21573 41.0857V3.48572L0 3.2V2.85715H26.5259V15.1429H26.2417L21.2681 3.42857H11.0841V21.9429H15.7735L19.0892 14.4571H19.3734V30H19.0892L15.7735 22.5143H11.0841V41.1428H21.5997L26.7154 28H26.9996Z" fill="#222222"/>
<path fill-rule="evenodd" clip-rule="evenodd" d="M88.6383 33.6081V33.772H92.2174L93.5153 28.4433H100.084L101.369 33.772H105.265V33.6081L99.9191 12.4571H94.9484L88.6383 33.6081ZM99.2545 25.0001L97.0876 16.0096H96.5439L94.354 25.0001H99.2545ZM118.922 31.9958C119.134 32.6881 119.413 33.2802 119.761 33.7721H123.657V33.6081C123.279 33.1162 122.955 32.4877 122.683 31.7226C122.411 30.9574 122.275 29.8552 122.275 28.416V20.4912H124.472V17.376H122.275V13.2769H118.673V17.376H116.771V20.4912H118.628V28.8806C118.628 30.2651 118.726 31.3035 118.922 31.9958ZM128.269 33.3349C129.175 33.8996 130.383 34.182 131.893 34.182C133.721 34.182 135.11 33.7174 136.061 32.7883C137.028 31.8592 137.511 30.6295 137.511 29.0992C137.511 28.0972 137.315 27.2865 136.922 26.6671C136.529 26.0295 136.001 25.5194 135.336 25.1368C134.687 24.736 133.97 24.3899 133.185 24.0984L131.554 23.4699C130.904 23.2148 130.421 22.9324 130.104 22.6227C129.787 22.313 129.628 21.9213 129.628 21.4477C129.628 20.974 129.772 20.6005 130.059 20.3273C130.361 20.054 130.806 19.9174 131.395 19.9174C132.044 19.9174 132.558 20.0996 132.935 20.4639C133.313 20.8101 133.539 21.311 133.615 21.9669H136.967C136.907 21.056 136.681 20.2271 136.288 19.4802C135.895 18.715 135.306 18.1047 134.521 17.6493C133.751 17.1938 132.754 16.9661 131.531 16.9661C129.84 16.9661 128.533 17.4215 127.612 18.3324C126.691 19.2251 126.23 20.4002 126.23 21.8576C126.23 22.8413 126.427 23.6429 126.819 24.2623C127.227 24.8818 127.763 25.3919 128.428 25.7926C129.092 26.1752 129.817 26.5305 130.602 26.8584L132.233 27.5142C132.898 27.7693 133.373 28.0517 133.66 28.3614C133.962 28.6529 134.113 29.0172 134.113 29.4544C134.113 29.9281 133.955 30.3198 133.638 30.6295C133.32 30.921 132.799 31.0667 132.075 31.0667C131.486 31.0667 130.98 30.9574 130.557 30.7388C130.149 30.5202 129.817 30.2196 129.56 29.837C129.319 29.4362 129.16 28.999 129.084 28.5253H125.596C125.656 29.3998 125.891 30.2742 126.298 31.1487C126.721 32.0232 127.378 32.7519 128.269 33.3349ZM107.077 33.7721V17.376H110.43V20.3819H110.973C111.064 19.8354 111.23 19.3253 111.472 18.8516C111.728 18.3597 112.114 17.968 112.627 17.6766C113.14 17.3669 113.828 17.212 114.688 17.212H115.413V21.2017H114.416C113.133 21.2017 112.197 21.5934 111.608 22.3768C111.034 23.1601 110.747 24.3352 110.747 25.9019V33.7721H107.077Z" fill="url(#paint0_linear_9_1140)"/>
<defs>
<linearGradient id="paint0_linear_9_1140" x1="89.6383" y1="23.35" x2="106.9" y2="20.5879" gradientUnits="userSpaceOnUse">
<stop/>
<stop offset="1" stop-color="#BC9D2E"/>
</linearGradient>
</defs>
</svg>
