<svg width="174" height="59" viewBox="0 0 174 59" fill="none" xmlns="http://www.w3.org/2000/svg">
<path d="M112.629 13.3801V13.0217H123.321V13.3801L118.184 17.3823L103.49 58.5385H95.9037V58.1801L106.715 47.6073L108.149 43.6052H103.669L92.917 14.0372L89.3928 13.3801V13.0217H106.297V13.3801L100.563 14.0372L109.702 39.3044L117.587 17.3823L112.629 13.3801Z" fill="white"/>
<path d="M89.271 28.3136C89.271 38.2294 82.1627 44.2027 74.2182 44.2027C66.1542 44.2027 59.1056 38.2294 59.1056 28.3136C59.1056 18.5174 66.1542 12.4246 74.2182 12.4246C82.1627 12.4246 89.271 18.5174 89.271 28.3136ZM81.207 28.3136C81.207 15.6502 79.415 12.9622 74.2182 12.9622C68.9616 12.9622 67.1696 15.6502 67.1696 28.3136C67.1696 40.9771 68.9616 43.6651 74.2182 43.6651C79.415 43.6651 81.207 40.9771 81.207 28.3136Z" fill="white"/>
<path d="M55.8073 43.6053H38.843V43.2469L43.6814 42.9483V0.836267L38.843 0.597333V0.238934L50.9689 0V42.9483L55.8073 43.2469V43.6053Z" fill="white"/>
<path d="M34.048 29.2692V43.6052H0V43.2468L5.31627 42.9482V3.64364L0 3.34497V2.98657H33.4507V15.8292H33.0923L26.8203 3.5839H13.9776V22.9375H19.8912L24.0725 15.1124H24.4309V31.3599H24.0725L19.8912 23.5348H13.9776V43.0079H27.2384L33.6896 29.2692H34.048Z" fill="white"/>
<path fill-rule="evenodd" clip-rule="evenodd" d="M111.778 35.1315V35.3029H116.291L117.928 29.7326H126.212L127.832 35.3029H132.745V35.1315L126.004 13.0217H119.735L111.778 35.1315ZM125.165 26.1334L122.433 16.7353H121.747L118.986 26.1334H125.165ZM149.968 33.4462C150.234 34.1699 150.587 34.7888 151.025 35.303H155.938V35.1316C155.462 34.6174 155.053 33.9604 154.71 33.1606C154.367 32.3607 154.196 31.2086 154.196 29.7041V21.4201H156.966V18.1636H154.196V13.8788H149.654V18.1636H147.254V21.4201H149.597V30.1898C149.597 31.6371 149.72 32.7226 149.968 33.4462ZM161.754 34.846C162.897 35.4363 164.42 35.7315 166.325 35.7315C168.629 35.7315 170.381 35.2459 171.581 34.2747C172.8 33.3034 173.409 32.018 173.409 30.4183C173.409 29.3709 173.162 28.5234 172.666 27.8759C172.171 27.2094 171.505 26.6762 170.667 26.2763C169.848 25.8573 168.943 25.4955 167.953 25.1908L165.896 24.5338C165.077 24.2672 164.468 23.972 164.068 23.6482C163.668 23.3245 163.468 22.915 163.468 22.4199C163.468 21.9248 163.649 21.5344 164.011 21.2487C164.392 20.9631 164.954 20.8202 165.696 20.8202C166.515 20.8202 167.163 21.0107 167.639 21.3915C168.115 21.7534 168.401 22.2771 168.496 22.9627H172.724C172.647 22.0105 172.362 21.144 171.867 20.3632C171.371 19.5633 170.629 18.9254 169.638 18.4493C168.667 17.9732 167.41 17.7351 165.868 17.7351C163.735 17.7351 162.088 18.2112 160.926 19.1634C159.764 20.0966 159.183 21.3249 159.183 22.8484C159.183 23.8768 159.431 24.7147 159.926 25.3622C160.44 26.0097 161.116 26.5429 161.954 26.9618C162.792 27.3618 163.706 27.7331 164.697 28.0759L166.753 28.7615C167.591 29.0281 168.191 29.3233 168.553 29.647C168.934 29.9517 169.124 30.3326 169.124 30.7896C169.124 31.2848 168.924 31.6942 168.524 32.018C168.124 32.3227 167.467 32.475 166.553 32.475C165.811 32.475 165.173 32.3608 164.639 32.1322C164.125 31.9037 163.706 31.5895 163.383 31.1896C163.078 30.7706 162.878 30.3136 162.783 29.8184H158.384C158.46 30.7325 158.755 31.6466 159.269 32.5607C159.802 33.4748 160.631 34.2366 161.754 34.846ZM135.03 35.303V18.1636H139.258V21.3058H139.944C140.058 20.7345 140.267 20.2013 140.572 19.7061C140.896 19.1919 141.381 18.7825 142.029 18.4778C142.676 18.154 143.543 17.9922 144.628 17.9922H145.542V22.1628H144.286C142.667 22.1628 141.486 22.5722 140.743 23.3911C140.02 24.21 139.658 25.4383 139.658 27.0761V35.303H135.03Z" fill="url(#paint0_linear_9_379)"/>
<defs>
<linearGradient id="paint0_linear_9_379" x1="119.84" y1="23.0221" x2="143.292" y2="17.8058" gradientUnits="userSpaceOnUse">
<stop stop-color="white"/>
<stop offset="1" stop-color="#BC9D2E"/>
</linearGradient>
</defs>
</svg>
